<?xml version="1.0" encoding="UTF-8" standalone="no" ?>
<!DOCTYPE svg PUBLIC "-//W3C//DTD SVG 1.1//EN" "http://www.w3.org/Graphics/SVG/1.1/DTD/svg11.dtd">
<svg xmlns="http://www.w3.org/2000/svg" xmlns:xlink="http://www.w3.org/1999/xlink" version="1.1" width="640" height="640" viewBox="0 0 640 640" xml:space="preserve">
<desc>Created with Fabric.js 5.3.0</desc>
<defs>
</defs>
<g transform="matrix(1.27620846 0 0 1.2762084612 315.5332703901 300.8768944183)" id="QBLgxpNzRhmAVoqeWjMDy"  >
<path style="stroke: rgb(230,174,37); stroke-width: 5; stroke-dasharray: none; stroke-linecap: butt; stroke-dashoffset: 0; stroke-linejoin: miter; stroke-miterlimit: 4; fill: rgb(255,255,255); fill-opacity: 0; fill-rule: nonzero; opacity: 1;" vector-effect="non-scaling-stroke"  transform=" translate(0, 0)" d="M 0 0" stroke-linecap="round" />
</g>
<g transform="matrix(1.27620846 0 0 1.2762084612 327.9124924518 294.368231266)" id="hjGZnTwJshtOf2_P8BLFo"  >
<path style="stroke: rgb(230,174,37); stroke-width: 5; stroke-dasharray: none; stroke-linecap: butt; stroke-dashoffset: 0; stroke-linejoin: miter; stroke-miterlimit: 4; fill: rgb(255,255,255); fill-opacity: 0; fill-rule: nonzero; opacity: 1;" vector-effect="non-scaling-stroke"  transform=" translate(0, 0)" d="M -49.11504 -6.02271 L -39.38053 2.15545 L -29.20354 0.38554 L -11.56195 5.52271 L 1.4424700000000001 5.52271 L 31.53097 6.02271 L 49.11504 0.38553999999999977" stroke-linecap="round" />
</g>
<g transform="matrix(1.27620846 0 0 1.2762084612 323.8286253799 463.5934732251)" id="v0oH4msEsfydsVGAWPJ5c"  >
<path style="stroke: rgb(230,174,37); stroke-width: 5; stroke-dasharray: none; stroke-linecap: butt; stroke-dashoffset: 0; stroke-linejoin: miter; stroke-miterlimit: 4; fill: rgb(255,255,255); fill-opacity: 0; fill-rule: nonzero; opacity: 1;" vector-effect="non-scaling-stroke"  transform=" translate(-0.000005, -0.00001)" d="M -44.69027 -137.57775 L -77.87611 -119.43616 L -97.78761 -93.77244 L -105.30973 -74.30341 L -107.9646 -57.046769999999995 L -112.38938 -15.011369999999992 L -107.9646 29.23642000000001 L -109.73451 70.38686000000001 L -101.76991 95.54237 L -84.07078999999999 112.79901000000001 L -54.867249999999984 129.17069 L -18.141589999999987 137.57777000000002 L 15.486730000000016 137.57777000000002 L 57.079650000000015 131.82556000000002 L 87.16815000000001 108.37423000000003 L 96.90266000000001 76.95830000000002 L 109.73452000000002 42.00255000000002 L 112.38939000000002 19.87866000000002 L 109.73452000000002 -23.860919999999975 L 93.80532000000002 -89.79011999999997 L 51.76992000000002 -132.71047" stroke-linecap="round" />
</g>
<g transform="matrix(1.27620846 0 0 1.2762084612 354.9681118029 469.719273839)" id="DPsoZNZ6Lfh3PUPYxNjk0"  >
<path style="stroke: rgb(230,174,37); stroke-width: 5; stroke-dasharray: none; stroke-linecap: butt; stroke-dashoffset: 0; stroke-linejoin: miter; stroke-miterlimit: 4; fill: rgb(255,255,255); fill-opacity: 0; fill-rule: nonzero; opacity: 1;" vector-effect="non-scaling-stroke"  transform=" translate(-0.000005, -0.000005)" d="M 9.29204 -131.63717 L -9.29203 -101.54867 L 2.654869999999999 -57.30088 L 2.654869999999999 -11.283180000000002 L 6.19469 31.194699999999997 L 4.424779999999999 66.59293 L 2.654869999999999 96.23894999999999 L -7.079640000000001 131.63718" stroke-linecap="round" />
</g>
<g transform="matrix(1.27620846 0 0 1.2762084612 403.8468958194 466.6563735321)" id="bCzCnGqIGSZU-J_jLjNck"  >
<path style="stroke: rgb(230,174,37); stroke-width: 5; stroke-dasharray: none; stroke-linecap: butt; stroke-dashoffset: 0; stroke-linejoin: miter; stroke-miterlimit: 4; fill: rgb(255,255,255); fill-opacity: 0; fill-rule: nonzero; opacity: 1;" vector-effect="non-scaling-stroke"  transform=" translate(0, 0)" d="M -27.9823 -127.87611 L 8.628319999999999 -113.71682 L 1.9911499999999984 -74.10884 L 0.22123999999999833 -38.0531 L 1.9911499999999984 6.637169999999998 L 31.194689999999998 45.575219999999995 L 35.176989999999996 79.20354 L 6.415929999999996 73.89381 L -7.300880000000005 127.87611000000001 L -35.17699 99.55753000000001" stroke-linecap="round" />
</g>
<g transform="matrix(1.27620846 0 0 1.2762084612 393.8924698317 456.4467058423)" id="j3VwuJdtD0enllZR9B2uW"  >
<path style="stroke: rgb(230,174,37); stroke-width: 5; stroke-dasharray: none; stroke-linecap: butt; stroke-dashoffset: 0; stroke-linejoin: miter; stroke-miterlimit: 4; fill: rgb(255,255,255); fill-opacity: 0; fill-rule: nonzero; opacity: 1;" vector-effect="non-scaling-stroke"  transform=" translate(0, 0.000005)" d="M 15.04425 -104.86726 L -38.0531 -92.47788 L 7.743360000000003 -66.14424 L -28.43363 -47.34514 L 7.743360000000003 -30.0885 L -28.43363 -0.44247999999999976 L 7.743360000000003 13.71681 L -23.77876 42.47787 L 38.0531 54.42477 L 15.044250000000002 80.97344000000001 L -26.10619 104.86725000000001" stroke-linecap="round" />
</g>
<g transform="matrix(1.27620846 0 0 1.2762084612 400.6563746695 545.1431938977)" id="mXfDY7ypgV49hQMNbXlNl"  >
<path style="stroke: rgb(230,174,37); stroke-width: 5; stroke-dasharray: none; stroke-linecap: butt; stroke-dashoffset: 0; stroke-linejoin: miter; stroke-miterlimit: 4; fill: rgb(255,255,255); fill-opacity: 0; fill-rule: nonzero; opacity: 1;" vector-effect="non-scaling-stroke"  transform=" translate(0, 0)" d="M 30.97345 -13.71681 L -30.97345 8.407079999999999 L 8.849559999999997 13.716809999999999" stroke-linecap="round" />
</g>
<g transform="matrix(1.27620846 0 0 1.2762084612 435.7521073184 437.6864414622)" id="nYNPhAkT6NQJZ2eDFxKIg"  >
<path style="stroke: rgb(230,174,37); stroke-width: 5; stroke-dasharray: none; stroke-linecap: butt; stroke-dashoffset: 0; stroke-linejoin: miter; stroke-miterlimit: 4; fill: rgb(255,255,255); fill-opacity: 0; fill-rule: nonzero; opacity: 1;" vector-effect="non-scaling-stroke"  transform=" translate(0, -0.00001)" d="M 6.30973 -69.4115 L -23.008850000000002 -51.48494000000001 L 14.601769999999995 -34.013270000000006 L -23.008850000000002 -15.429200000000005 L 20.796459999999996 -2.5973400000000044 L -23.008850000000002 29.261069999999997 L 6.309729999999998 34.12833 L 14.601769999999998 50.94249 L 6.309729999999998 69.41152 L 20.796459999999996 63.331869999999995 L 14.601769999999997 50.94248999999999 L 23.008849999999995 42.977889999999995" stroke-linecap="round" />
</g>
<g transform="matrix(1.27620846 0 0 1.2762084612 453.6190257578 468.5706862239)" id="08M2w7WpzHCcoA6dopdtY"  >
<path style="stroke: rgb(230,174,37); stroke-width: 5; stroke-dasharray: none; stroke-linecap: butt; stroke-dashoffset: 0; stroke-linejoin: miter; stroke-miterlimit: 4; fill: rgb(255,255,255); fill-opacity: 0; fill-rule: nonzero; opacity: 1;" vector-effect="non-scaling-stroke"  transform=" translate(0, -0.000005)" d="M -0.27876 24.14381 L 7.68584 -24.143800000000002 L -7.68584 9.98452" stroke-linecap="round" />
</g>
<g transform="matrix(1.27620846 0 0 1.2762084612 324.2114879179 470.6126197619)" id="6FUlE_EQooqDnyspuKfst"  >
<path style="stroke: rgb(230,174,37); stroke-width: 5; stroke-dasharray: none; stroke-linecap: butt; stroke-dashoffset: 0; stroke-linejoin: miter; stroke-miterlimit: 4; fill: rgb(255,255,255); fill-opacity: 0; fill-rule: nonzero; opacity: 1;" vector-effect="non-scaling-stroke"  transform=" translate(0.000005, 0)" d="M 3.76106 -131.97345 L 13.82301 -102.21239000000001 L -24.115039999999997 -79.64602000000002 L 26.212390000000003 -58.40708000000002 L -29.867259999999998 -52.654870000000024 L 26.212390000000003 -11.061950000000024 L -11.283189999999994 -12.831860000000024 L 29.86725000000001 31.858409999999974 L -24.115049999999993 29.646019999999975 L 27.982300000000006 67.25663999999998 L -21.902659999999994 71.23893999999997 L 26.212380000000007 94.80530999999996 L -25.884969999999992 94.80530999999996 L 13.822990000000008 131.97344999999996" stroke-linecap="round" />
</g>
<g transform="matrix(1.27620846 0 0 1.2762084612 319.106654078 320.0200213368)" id="Dyuw73JqaUgHkWjYM-r8t"  >
<path style="stroke: rgb(230,174,37); stroke-width: 5; stroke-dasharray: none; stroke-linecap: butt; stroke-dashoffset: 0; stroke-linejoin: miter; stroke-miterlimit: 4; fill: rgb(255,255,255); fill-opacity: 0; fill-rule: nonzero; opacity: 1;" vector-effect="non-scaling-stroke"  transform=" translate(0.000005, 0.000005)" d="M 8.18584 -13.99558 L -15.707969999999998 3.376100000000001 L 15.707960000000002 13.99557" stroke-linecap="round" />
</g>
<g transform="matrix(1.27620846 0 0 1.2762084612 297.0282477207 480.1841832211)" id="aZnzk9YJzw0NmC-9f6z3c"  >
<path style="stroke: rgb(230,174,37); stroke-width: 5; stroke-dasharray: none; stroke-linecap: butt; stroke-dashoffset: 0; stroke-linejoin: miter; stroke-miterlimit: 4; fill: rgb(255,255,255); fill-opacity: 0; fill-rule: nonzero; opacity: 1;" vector-effect="non-scaling-stroke"  transform=" translate(0.000005, -0.00001)" d="M 1.10619 -122.56637 L -3.7035400000000003 -87.16814000000001 L -9.5708 -59.73451000000001 L 9.57079 -20.353980000000007 L -3.70355 22.123899999999992 L -3.70355 65.60177999999999 L -3.70355 87.2832 L 1.1061800000000002 122.56638999999998" stroke-linecap="round" />
</g>
<g transform="matrix(1.27620846 0 0 1.2762084612 313.1084743162 313.1284956461)" id="FsRqnOm3KWVvwWO4iYqYg"  >
<path style="stroke: rgb(230,174,37); stroke-width: 5; stroke-dasharray: none; stroke-linecap: butt; stroke-dashoffset: 0; stroke-linejoin: miter; stroke-miterlimit: 4; fill: rgb(255,255,255); fill-opacity: 0; fill-rule: nonzero; opacity: 1;" vector-effect="non-scaling-stroke"  transform=" translate(0.000005, 0)" d="M 12.00442 -8.62832 L 1.9228799999999993 -9.62832 L -12.004430000000001 9.62832" stroke-linecap="round" />
</g>
<g transform="matrix(1.27620846 0 0 1.2762084612 267.8030739876 461.2962979949)" id="ZfQN-uv2KcNjYKeEofKZV"  >
<path style="stroke: rgb(230,174,37); stroke-width: 5; stroke-dasharray: none; stroke-linecap: butt; stroke-dashoffset: 0; stroke-linejoin: miter; stroke-miterlimit: 4; fill: rgb(255,255,255); fill-opacity: 0; fill-rule: nonzero; opacity: 1;" vector-effect="non-scaling-stroke"  transform=" translate(-0.000005, -0.00001)" d="M 10.29204 -130.72374 L 22.45133 -108.77183 L -22.451320000000003 -76.35589999999999 L 13.274339999999995 -46.267399999999995 L -11.831850000000006 -3.789519999999996 L 18.699119999999994 36.475970000000004 L -19.796460000000003 63.024640000000005 L 18.699119999999994 76.74145 L -15.371680000000005 96.21048 L 18.699119999999994 102.07774 L -8.734510000000007 130.72376" stroke-linecap="round" />
</g>
<g transform="matrix(1.27620846 0 0 1.2762084612 250.9571223162 459.3819853031)" id="NfS5-0CvO7QkcsL6HDoWR"  >
<path style="stroke: rgb(230,174,37); stroke-width: 5; stroke-dasharray: none; stroke-linecap: butt; stroke-dashoffset: 0; stroke-linejoin: miter; stroke-miterlimit: 4; fill: rgb(255,255,255); fill-opacity: 0; fill-rule: nonzero; opacity: 1;" vector-effect="non-scaling-stroke"  transform=" translate(0, 0)" d="M 10.17699 -133.24336 L -10.17699 -74.83627999999999 L 1 -2.2699099999999817 L -10.17699 24.27876000000002 L -6.52212 60.11947000000002 L -2.53982 96.84513000000001 L 4.0973500000000005 133.24336" stroke-linecap="round" />
</g>
<g transform="matrix(1.27620846 0 0 1.2762084612 219.3071525092 456.9571892267)" id="LjjCh6Z7tD64BVufkr2HO"  >
<path style="stroke: rgb(230,174,37); stroke-width: 5; stroke-dasharray: none; stroke-linecap: butt; stroke-dashoffset: 0; stroke-linejoin: miter; stroke-miterlimit: 4; fill: rgb(255,255,255); fill-opacity: 0; fill-rule: nonzero; opacity: 1;" vector-effect="non-scaling-stroke"  transform=" translate(0.00001, -0.000005)" d="M 5.80973 -115.9292 L 13.54424 -72.12388999999999 L -5.2522199999999994 -41.59291999999999 L 24.72123 -2.212389999999992 L -17.641600000000004 -4.867259999999992 L 13.544239999999995 24.33628000000001 L -24.721250000000005 34.18584000000001 L 18.641579999999998 66.81416000000002 L -12.774350000000002 71.23894000000001 L 24.721229999999995 101.25287000000002 L -1.2699200000000062 115.92921000000001" stroke-linecap="round" />
</g>
<g transform="matrix(1.27620846 0 0 1.2762084612 217.0099772812 447.0027632292)" id="diq85ozckgHIRdZHeHp4v"  >
<path style="stroke: rgb(230,174,37); stroke-width: 5; stroke-dasharray: none; stroke-linecap: butt; stroke-dashoffset: 0; stroke-linejoin: miter; stroke-miterlimit: 4; fill: rgb(255,255,255); fill-opacity: 0; fill-rule: nonzero; opacity: 1;" vector-effect="non-scaling-stroke"  transform=" translate(-0.000005, -0.00001)" d="M 7.09003 -109.03351 L -12.821470000000001 -67.95763000000001 L -4.856870000000002 -33.88683000000001 L -15.47634 2.8388299999999873 L -23.90419 42.08153999999999 L -12.82147 76.92224999999999 L -18.1312 105.93618 L 23.904200000000003 109.03353" stroke-linecap="round" />
</g>
<g transform="matrix(1.27620846 0 0 1.2762084612 192.634395696 396.3372873183)" id="knb343X2yZ33dIm5RlUeT"  >
<path style="stroke: rgb(230,174,37); stroke-width: 5; stroke-dasharray: none; stroke-linecap: butt; stroke-dashoffset: 0; stroke-linejoin: miter; stroke-miterlimit: 4; fill: rgb(255,255,255); fill-opacity: 0; fill-rule: nonzero; opacity: 1;" vector-effect="non-scaling-stroke"  transform=" translate(0, 0)" d="M 5.82012 -41.59292 L 5.82012 -26.991149999999998 L -5.82012 -1.7699099999999959 L 0.5103900000000001 41.59292000000001" stroke-linecap="round" />
</g>
<g transform="matrix(1.27620846 0 0 1.2762084612 261.2944108418 319.8924004906)" id="PTyCEdwhURb1mLLm2DnF_"  >
<path style="stroke: rgb(230,174,37); stroke-width: 5; stroke-dasharray: none; stroke-linecap: butt; stroke-dashoffset: 0; stroke-linejoin: miter; stroke-miterlimit: 4; fill: rgb(255,255,255); fill-opacity: 0; fill-rule: nonzero; opacity: 1;" vector-effect="non-scaling-stroke"  transform=" translate(0.000005, 0)" d="M -27.58696 -5.31416 L -8.13871 1.1017700000000001 L 27.586949999999998 5.31416" stroke-linecap="round" />
</g>
<g transform="matrix(1.27620846 0 0 1.2762084612 244.8313217084 363.5387298647)" id="_YOBAtEFhlTqvzpH-fNE5"  >
<path style="stroke: rgb(230,174,37); stroke-width: 5; stroke-dasharray: none; stroke-linecap: butt; stroke-dashoffset: 0; stroke-linejoin: miter; stroke-miterlimit: 4; fill: rgb(255,255,255); fill-opacity: 0; fill-rule: nonzero; opacity: 1;" vector-effect="non-scaling-stroke"  transform=" translate(0, -0.000005)" d="M -34.01327 -3.53982 L -5.388029999999997 -0.44247000000000014 L 34.013270000000006 3.53983" stroke-linecap="round" />
</g>
<g transform="matrix(1.27620846 0 0 1.2762084612 235.0045165667 400.2935335481)" id="YOT8BZrQHafHRBOtt4Dv3"  >
<path style="stroke: rgb(230,174,37); stroke-width: 5; stroke-dasharray: none; stroke-linecap: butt; stroke-dashoffset: 0; stroke-linejoin: miter; stroke-miterlimit: 4; fill: rgb(255,255,255); fill-opacity: 0; fill-rule: nonzero; opacity: 1;" vector-effect="non-scaling-stroke"  transform=" translate(0.000005, -0.000005)" d="M -37.99558 -5.30973 L -16.967489999999998 5.30974 L 37.99557 1.7699199999999995" stroke-linecap="round" />
</g>
<g transform="matrix(1.27620846 0 0 1.2762084612 183.9561781683 450.7037677667)" id="WyLytftRIKQjl0XlmhXlg"  >
<path style="stroke: rgb(230,174,37); stroke-width: 5; stroke-dasharray: none; stroke-linecap: butt; stroke-dashoffset: 0; stroke-linejoin: miter; stroke-miterlimit: 4; fill: rgb(255,255,255); fill-opacity: 0; fill-rule: nonzero; opacity: 1;" vector-effect="non-scaling-stroke"  transform=" translate(0, 0)" d="M 0 0" stroke-linecap="round" />
</g>
<g transform="matrix(1.27620846 0 0 1.2762084612 242.6617673264 450.1932843822)" id="J-c0BS3DNZp9Wx3UsgcOi"  >
<path style="stroke: rgb(230,174,37); stroke-width: 5; stroke-dasharray: none; stroke-linecap: butt; stroke-dashoffset: 0; stroke-linejoin: miter; stroke-miterlimit: 4; fill: rgb(255,255,255); fill-opacity: 0; fill-rule: nonzero; opacity: 1;" vector-effect="non-scaling-stroke"  transform=" translate(-0.000005, -0.000005)" d="M -49.81213 -2.96808 L -36.02857 0.9282699999999999 L 49.81214 2.96809" stroke-linecap="round" />
</g>
<g transform="matrix(1.27620846 0 0 1.2762084612 263.7192069158 498.0511016784)" id="Pb06uQFotXnn6jS_OqIiO"  >
<path style="stroke: rgb(230,174,37); stroke-width: 5; stroke-dasharray: none; stroke-linecap: butt; stroke-dashoffset: 0; stroke-linejoin: miter; stroke-miterlimit: 4; fill: rgb(255,255,255); fill-opacity: 0; fill-rule: nonzero; opacity: 1;" vector-effect="non-scaling-stroke"  transform=" translate(0, 0)" d="M -20.20065 -6.63717 L 20.20065 6.63717" stroke-linecap="round" />
</g>
<g transform="matrix(1.27620846 0 0 1.2762084612 193.272499926 549.2270609737)" id="rSX3PqG-iPRy6LforDFw5"  >
<path style="stroke: rgb(230,174,37); stroke-width: 5; stroke-dasharray: none; stroke-linecap: butt; stroke-dashoffset: 0; stroke-linejoin: miter; stroke-miterlimit: 4; fill: rgb(255,255,255); fill-opacity: 0; fill-rule: nonzero; opacity: 1;" vector-effect="non-scaling-stroke"  transform=" translate(0, 0)" d="M -5.32012 3.22378 L 5.32012 -3.22378" stroke-linecap="round" />
</g>
<g transform="matrix(1.27620846 0 0 1.2762084612 281.5861253552 282.2442508844)" id="vFqtloLNi-y1XIraBKKQJ"  >
<path style="stroke: rgb(10,182,0); stroke-width: 5; stroke-dasharray: none; stroke-linecap: butt; stroke-dashoffset: 0; stroke-linejoin: miter; stroke-miterlimit: 4; fill: rgb(255,255,255); fill-opacity: 0; fill-rule: nonzero; opacity: 1;" vector-effect="non-scaling-stroke"  transform=" translate(0, 0)" d="M 0 0" stroke-linecap="round" />
</g>
<g transform="matrix(1.27620846 0 0 1.2762084612 320 154.1129213769)" id="3wKs95ALefg08p8gLWotj"  >
<path style="stroke: rgb(10,182,0); stroke-width: 5; stroke-dasharray: none; stroke-linecap: butt; stroke-dashoffset: 0; stroke-linejoin: miter; stroke-miterlimit: 4; fill: rgb(255,255,255); fill-opacity: 0; fill-rule: nonzero; opacity: 1;" vector-effect="non-scaling-stroke"  transform=" translate(-0.000025, 0.00001)" d="M -74.46516 105.49112 L -51.18208 95.94337999999999 L -32.42161 112.52628999999999 L -24.213900000000002 110.01373 L -4.029650000000004 116.04388 L 5.769349999999996 116.04388 L 36.422619999999995 117.21641 L 72.74834999999999 99.75908 L 88.08535999999998 108.81942 L 90.09540999999999 97.93164999999999 L 60.11215999999999 82.35376 L 97.75983 54.92894999999999 L 104.12499 60.95909999999999 L 108.98261 54.92894999999999 L 96.5873 49.401309999999995 L 76.98931 54.92894999999999 L 38.463350000000005 73.01939999999999 L 78.32935 45.548709999999986 L 70.28915 32.98589999999999 L 120.32419000000002 -15.284270000000014 L 101.39622000000001 -14.446750000000014 L 75.26557000000001 -4.396500000000014 L 65.21532 4.481219999999986 L 94.86097000000001 -43.99853000000002 L 107.25628 -37.13086000000001 L 105.07873000000001 -49.19116000000001 L 78.32936000000001 -49.19116000000001 L 60.11218000000001 -38.52294000000001 L 66.81478000000001 -56.948400000000014 L 62.12466000000001 -78.22143000000001 L 41.52164000000001 -67.16615000000002 L 37.66218000000001 -94.26319000000001 L 40.67726000000001 -98.95331000000002 L 54.41260000000001 -98.95331000000002 L 43.85984000000001 -105.82098000000002 L 35.652130000000014 -104.64845000000003 L 16.054140000000015 -82.87291000000002 L 11.531530000000014 -98.95331000000002 L -3.4696299999999862 -117.21643000000002 L -17.672119999999985 -88.17165000000001 L -39.337319999999984 -99.99329000000002 L -47.37751999999998 -90.27805000000002 L -39.337319999999984 -91.45058000000002 L -40.34234999999998 -72.69011000000002 L -33.13966999999998 -57.782240000000016 L -86.16710999999998 -84.81220000000002 L -97.05487999999998 -79.78707000000001 L -80.97447999999999 -76.26948000000002 L -59.198939999999986 -42.098630000000014 L -78.79692999999999 -55.331460000000014 L -90.85722999999999 -52.31638000000002 L -74.46513999999999 -43.99854000000002 L -52.35624999999999 -0.2427200000000198 L -83.67952999999999 -18.83568000000002 L -107.15666999999999 -20.77348000000002 L -120.32413999999999 -14.44676000000002 L -100.39113999999998 -11.13116000000002 L -67.40170999999998 20.779759999999982 L -88.64585999999998 37.35212999999998 L -74.46512999999999 34.91858999999998 L -28.954829999999987 79.49502999999999 L -56.258009999999985 59.729539999999986 L -78.79690999999998 61.90708999999998 L -52.356239999999985 83.18011999999999 L -70.93471999999998 94.37595999999999 z" stroke-linecap="round" />
</g>
<g transform="matrix(1.27620846 0 0 1.2762084612 343.8650982013 276.7565545011)" id="AEppRttrn-siYSmVMKHCa"  >
<path style="stroke: rgb(10,182,0); stroke-width: 5; stroke-dasharray: none; stroke-linecap: butt; stroke-dashoffset: 0; stroke-linejoin: miter; stroke-miterlimit: 4; fill: rgb(255,255,255); fill-opacity: 0; fill-rule: nonzero; opacity: 1;" vector-effect="non-scaling-stroke"  transform=" translate(0.000005, -0.000005)" d="M -70.13514 -0.54054 L -16.61610000000001 5.40541 L 26.08106999999999 -5.4054 L 52.02701999999999 2.7027099999999997 L 70.13512999999999 1.6216299999999997" stroke-linecap="round" />
</g>
<g transform="matrix(1.27620846 0 0 1.2762084612 317.0647205421 263.6116073504)" id="gYXwt9LiCtlN13YUP7SAq"  >
<path style="stroke: rgb(10,182,0); stroke-width: 5; stroke-dasharray: none; stroke-linecap: butt; stroke-dashoffset: 0; stroke-linejoin: miter; stroke-miterlimit: 4; fill: rgb(255,255,255); fill-opacity: 0; fill-rule: nonzero; opacity: 1;" vector-effect="non-scaling-stroke"  transform=" translate(0, -0.000005)" d="M -72.16216 17.23649 L -50.689189999999996 -2.64189 L -9.729729999999996 13.57433 L -8.378379999999996 -17.23648 L 4.329850000000004 14.92568 L 15.135130000000004 -17.23648 L 22.162160000000004 8.4392 L 40.810810000000004 -13.72296 L 46.75676 8.4392 L 60.810810000000004 -4.2635000000000005 L 72.16216 12.22299" stroke-linecap="round" />
</g>
<g transform="matrix(1.27620846 0 0 1.2762084612 334.9316389815 229.2815997433)" id="iK4CgN16nxtL9CcGFlz66"  >
<path style="stroke: rgb(10,182,0); stroke-width: 5; stroke-dasharray: none; stroke-linecap: butt; stroke-dashoffset: 0; stroke-linejoin: miter; stroke-miterlimit: 4; fill: rgb(255,255,255); fill-opacity: 0; fill-rule: nonzero; opacity: 1;" vector-effect="non-scaling-stroke"  transform=" translate(0.00001, 0)" d="M -63.16892 37.16216 L -64.66892 24.18919 L -38.57433 22.2973 L -38.57433 -7.97297 L -6.682440000000003 9.5946 L -6.682440000000003 -37.16216 L 1.6959399999999967 6.3513499999999965 L 34.12836999999999 -27.972970000000004 L 26.56079999999999 -7.972970000000004 L 40.07430999999999 -13.108110000000003 L 64.6689 -14.729730000000004" stroke-linecap="round" />
</g>
<g transform="matrix(1.27620846 0 0 1.2762084612 309.7903323203 247.9142432773)" id="jb7002NOSaPHc1FpCHaFE"  >
<path style="stroke: rgb(10,182,0); stroke-width: 5; stroke-dasharray: none; stroke-linecap: butt; stroke-dashoffset: 0; stroke-linejoin: miter; stroke-miterlimit: 4; fill: rgb(255,255,255); fill-opacity: 0; fill-rule: nonzero; opacity: 1;" vector-effect="non-scaling-stroke"  transform=" translate(0, 0)" d="M -19.69257 6.62162 L -6.44933 22.56757 L -18.34122 -22.56757 L -2.39527 -5 L 19.69257 -6.5" stroke-linecap="round" />
</g>
<g transform="matrix(1.27620846 0 0 1.2762084612 322.4247960739 257.7410484287)" id="1HISm72OXAfcZH13aLNIU"  >
<path style="stroke: rgb(10,182,0); stroke-width: 5; stroke-dasharray: none; stroke-linecap: butt; stroke-dashoffset: 0; stroke-linejoin: miter; stroke-miterlimit: 4; fill: rgb(255,255,255); fill-opacity: 0; fill-rule: nonzero; opacity: 1;" vector-effect="non-scaling-stroke"  transform=" translate(-0.000005, -0.000005)" d="M -9.84628 -11.35135 L 0.1964100000000002 4.53379 L 0.1964100000000002 11.35136 L 0.1964100000000002 4.53379 L 9.84629 -6.48648" stroke-linecap="round" />
</g>
<g transform="matrix(1.27620846 0 0 1.2762084612 358.0310121068 245.4894472009)" id="I6_rmuM7TCyegpvanBy_-"  >
<path style="stroke: rgb(10,182,0); stroke-width: 5; stroke-dasharray: none; stroke-linecap: butt; stroke-dashoffset: 0; stroke-linejoin: miter; stroke-miterlimit: 4; fill: rgb(255,255,255); fill-opacity: 0; fill-rule: nonzero; opacity: 1;" vector-effect="non-scaling-stroke"  transform=" translate(0.000005, -0.000005)" d="M 8.24324 -19.05405 L -8.24325 19.054060000000003" stroke-linecap="round" />
</g>
<g transform="matrix(1.27620846 0 0 1.2762084612 412.3974925011 236.5559879723)" id="GCJypqCwht8Hb5RD870f3"  >
<path style="stroke: rgb(10,182,0); stroke-width: 5; stroke-dasharray: none; stroke-linecap: butt; stroke-dashoffset: 0; stroke-linejoin: miter; stroke-miterlimit: 4; fill: rgb(255,255,255); fill-opacity: 0; fill-rule: nonzero; opacity: 1;" vector-effect="non-scaling-stroke"  transform=" translate(0, 0)" d="M -21.46622 -18.51351 L -33.939189999999996 8.91892 L -13.358109999999996 18.51351 L 2.8581100000000035 -8.51352 L 33.93919 -10.40541" stroke-linecap="round" />
</g>
<g transform="matrix(1.27620846 0 0 1.2762084612 251.9780890841 245.2342055087)" id="-C9fTadaDGfN53MffRvIM"  >
<path style="stroke: rgb(10,182,0); stroke-width: 5; stroke-dasharray: none; stroke-linecap: butt; stroke-dashoffset: 0; stroke-linejoin: miter; stroke-miterlimit: 4; fill: rgb(255,255,255); fill-opacity: 0; fill-rule: nonzero; opacity: 1;" vector-effect="non-scaling-stroke"  transform=" translate(0, -0.000005)" d="M -22.66216 -8.51351 L 22.66216 8.51352" stroke-linecap="round" />
</g>
<g transform="matrix(1.27620846 0 0 1.2762084612 316.8094788501 211.6699229783)" id="eaA1OHSkuvArbG1x_yv0a"  >
<path style="stroke: rgb(10,182,0); stroke-width: 5; stroke-dasharray: none; stroke-linecap: butt; stroke-dashoffset: 0; stroke-linejoin: miter; stroke-miterlimit: 4; fill: rgb(255,255,255); fill-opacity: 0; fill-rule: nonzero; opacity: 1;" vector-effect="non-scaling-stroke"  transform=" translate(0.000005, 0.00001)" d="M -71.35135 -10.40541 L -27.067569999999996 20.67567 L -33.783789999999996 1.7567500000000003 L -6.942569999999996 14.99999 L 7.8378400000000035 -20.67569 L 15.750000000000004 16.20269 L 24.864860000000004 -18.783800000000003 L 43.513510000000004 -20.675690000000003 L 57.02702000000001 -12.027040000000003 L 71.35134000000001 -12.027040000000003" stroke-linecap="round" />
</g>
<g transform="matrix(1.27620846 0 0 1.2762084612 349.0975528871 174.2770150643)" id="LouPKsK-8x2lBrzMwLMID"  >
<path style="stroke: rgb(10,182,0); stroke-width: 5; stroke-dasharray: none; stroke-linecap: butt; stroke-dashoffset: 0; stroke-linejoin: miter; stroke-miterlimit: 4; fill: rgb(255,255,255); fill-opacity: 0; fill-rule: nonzero; opacity: 1;" vector-effect="non-scaling-stroke"  transform=" translate(0.00001, 0)" d="M -95.6011 19.72973 L -62.8984 30.54054 L -61.81732 26.21622 L -50.46597 26.21622 L -59.92543 -16.00701 L -18.033540000000002 4.44595 L -7.493000000000002 -4.05405 L 11.155649999999998 -4.05405 L 45.06054 -13.78729 L 20.61511 7.148649999999998 L 95.60108 -30.540540000000007 L 33.438919999999996 9.189189999999996 L 45.060539999999996 15.945949999999996" stroke-linecap="round" />
</g>
<g transform="matrix(1.27620846 0 0 1.2762084612 290.7748262669 190.3572416758)" id="9cgasF0SCnWf-CpYDcwK7"  >
<path style="stroke: rgb(10,182,0); stroke-width: 5; stroke-dasharray: none; stroke-linecap: butt; stroke-dashoffset: 0; stroke-linejoin: miter; stroke-miterlimit: 4; fill: rgb(255,255,255); fill-opacity: 0; fill-rule: nonzero; opacity: 1;" vector-effect="non-scaling-stroke"  transform=" translate(0, -0.000005)" d="M -13.45698 -28.57869 L 13.45698 28.578699999999998 L -6.66802 13.318959999999997" stroke-linecap="round" />
</g>
<g transform="matrix(1.27620846 0 0 1.2762084612 372.9626510883 191.2505875987)" id="xMalpGIA2O_BP3KfXtwpQ"  >
<path style="stroke: rgb(10,182,0); stroke-width: 5; stroke-dasharray: none; stroke-linecap: butt; stroke-dashoffset: 0; stroke-linejoin: miter; stroke-miterlimit: 4; fill: rgb(255,255,255); fill-opacity: 0; fill-rule: nonzero; opacity: 1;" vector-effect="non-scaling-stroke"  transform=" translate(-0.000005, 0)" d="M -26.94805 -16.00256 L -18.73472 -3.0155499999999993 L -9.0909 -16.00256 L 0.9740400000000005 -6.173119999999999 L 14.935080000000001 -3.015549999999999 L 12.013000000000002 16.002560000000003 L 26.94806 5.426010000000003" stroke-linecap="round" />
</g>
<g transform="matrix(1.27620846 0 0 1.2762084612 319.36189577 148.4976041475)" id="5f2nwqC1Vdno1qEBiIvGc"  >
<path style="stroke: rgb(10,182,0); stroke-width: 5; stroke-dasharray: none; stroke-linecap: butt; stroke-dashoffset: 0; stroke-linejoin: miter; stroke-miterlimit: 4; fill: rgb(255,255,255); fill-opacity: 0; fill-rule: nonzero; opacity: 1;" vector-effect="non-scaling-stroke"  transform=" translate(0.000015, -0.00001)" d="M -73.79037 38.31169 L -52.43902 32.784949999999995 L -28.65524 44.8052 L -103.4091 -13.311680000000003 L -50.811699999999995 6.818189999999998 L -37.376639999999995 0.6493599999999979 L -8.962679999999995 6.818189999999998 L -1.7498399999999954 14.610399999999998 L 19.196110000000004 -37.662330000000004 L 15.097390000000004 14.610399999999998 L 40.020430000000005 -19.15583 L 61.85063000000001 -35.06492 L 34.25323000000001 14.610399999999998 L 94.64284 -40.259730000000005 L 103.40907000000001 -44.80518000000001" stroke-linecap="round" />
</g>
<g transform="matrix(1.27620846 0 0 1.2762084612 250.1913972402 195.4620755207)" id="gTWbWtc5OMo0ECRZko5nV"  >
<path style="stroke: rgb(10,182,0); stroke-width: 5; stroke-dasharray: none; stroke-linecap: butt; stroke-dashoffset: 0; stroke-linejoin: miter; stroke-miterlimit: 4; fill: rgb(255,255,255); fill-opacity: 0; fill-rule: nonzero; opacity: 1;" vector-effect="non-scaling-stroke"  transform=" translate(-0.000005, 0)" d="M -12.17532 -12.16216 L 0.28177000000000163 -5.16553 L 12.175330000000002 12.16216" stroke-linecap="round" />
</g>
<g transform="matrix(1.27620846 0 0 1.2762084612 262.3153776098 199.8011842889)" id="FmMffM9HUpeu5Vw8O5bJw"  >
<path style="stroke: rgb(10,182,0); stroke-width: 5; stroke-dasharray: none; stroke-linecap: butt; stroke-dashoffset: 0; stroke-linejoin: miter; stroke-miterlimit: 4; fill: rgb(255,255,255); fill-opacity: 0; fill-rule: nonzero; opacity: 1;" vector-effect="non-scaling-stroke"  transform=" translate(0.000005, 0.000005)" d="M -7.5312 -6.58151 L 7.5311900000000005 6.5815" stroke-linecap="round" />
</g>
<g transform="matrix(1.27620846 0 0 1.2762084612 252.3609516221 157.1758216838)" id="Ql-85CpIEf5nr1I3DQ9t_"  >
<path style="stroke: rgb(10,182,0); stroke-width: 5; stroke-dasharray: none; stroke-linecap: butt; stroke-dashoffset: 0; stroke-linejoin: miter; stroke-miterlimit: 4; fill: rgb(255,255,255); fill-opacity: 0; fill-rule: nonzero; opacity: 1;" vector-effect="non-scaling-stroke"  transform=" translate(0, 0)" d="M 0 0" stroke-linecap="round" />
</g>
<g transform="matrix(1.27620846 0 0 1.2762084612 268.1859365256 180.4028156782)" id="1cd369ZDgivvzzG5fxoV8"  >
<path style="stroke: rgb(10,182,0); stroke-width: 5; stroke-dasharray: none; stroke-linecap: butt; stroke-dashoffset: 0; stroke-linejoin: miter; stroke-miterlimit: 4; fill: rgb(255,255,255); fill-opacity: 0; fill-rule: nonzero; opacity: 1;" vector-effect="non-scaling-stroke"  transform=" translate(0.000005, 0)" d="M 7.49513 -8.99283 L -10.03734 -18.181820000000002 L 10.03733 18.181819999999995" stroke-linecap="round" />
</g>
<g transform="matrix(1.27620846 0 0 1.2762084612 309.2798489363 110.8494545412)" id="6QFI4C-Y7_otf9m_FnWXo"  >
<path style="stroke: rgb(10,182,0); stroke-width: 5; stroke-dasharray: none; stroke-linecap: butt; stroke-dashoffset: 0; stroke-linejoin: miter; stroke-miterlimit: 4; fill: rgb(255,255,255); fill-opacity: 0; fill-rule: nonzero; opacity: 1;" vector-effect="non-scaling-stroke"  transform=" translate(0, -0.00001)" d="M -65.93502 -9.41558 L -69.05663999999999 -20.779220000000002 L -27.832089999999987 29.520159999999997 L -21.232319999999987 11.688319999999997 L 5.835250000000013 43.18183 L 7.905370000000013 -32.46752 L 27.051460000000013 -7.792200000000001 L 69.05664000000002 -43.18181 L 67.43326000000002 -7.792200000000001" stroke-linecap="round" />
</g>
<g transform="matrix(1.27620846 0 0 1.2762084612 384.576148074 89.6643940848)" id="4W1-Fhzaa-uRiB53f6Bgs"  >
<path style="stroke: rgb(10,182,0); stroke-width: 5; stroke-dasharray: none; stroke-linecap: butt; stroke-dashoffset: 0; stroke-linejoin: miter; stroke-miterlimit: 4; fill: rgb(255,255,255); fill-opacity: 0; fill-rule: nonzero; opacity: 1;" vector-effect="non-scaling-stroke"  transform=" translate(0, 0)" d="M 9.09091 -25 L -9.09091 25" stroke-linecap="round" />
</g>
<g transform="matrix(1.27620846 0 0 1.2762084612 307.3655362464 86.3462520856)" id="IBsnm9tHq30vGs4iZK34T"  >
<path style="stroke: rgb(10,182,0); stroke-width: 5; stroke-dasharray: none; stroke-linecap: butt; stroke-dashoffset: 0; stroke-linejoin: miter; stroke-miterlimit: 4; fill: rgb(255,255,255); fill-opacity: 0; fill-rule: nonzero; opacity: 1;" vector-effect="non-scaling-stroke"  transform=" translate(0, 0)" d="M -51.46104 10.77597 L -19.672079999999998 29.15909 L -10.227269999999997 19.217529999999996 L 9.415590000000002 -14.873380000000004 L 24.837670000000003 -29.159090000000006 L 28.611710000000002 10.775969999999994 L 51.46104 -14.873380000000004" stroke-linecap="round" />
</g>
<g transform="matrix(1.27620846 0 0 1.2762084612 374.8769637783 188.9534123684)" id="njXrOP5BntQlCCBVqqTep"  >
<path style="stroke: rgb(10,182,0); stroke-width: 5; stroke-dasharray: none; stroke-linecap: butt; stroke-dashoffset: 0; stroke-linejoin: miter; stroke-miterlimit: 4; fill: rgb(255,255,255); fill-opacity: 0; fill-rule: nonzero; opacity: 1;" vector-effect="non-scaling-stroke"  transform=" translate(0, 0)" d="M 0 0" stroke-linecap="round" />
</g>
<g transform="matrix(1.27620846 0 0 1.2762084612 359.0519788748 207.5860559024)" id="gw3GJ9pUvZF77izR_Xs53"  >
<path style="stroke: rgb(10,182,0); stroke-width: 5; stroke-dasharray: none; stroke-linecap: butt; stroke-dashoffset: 0; stroke-linejoin: miter; stroke-miterlimit: 4; fill: rgb(255,255,255); fill-opacity: 0; fill-rule: nonzero; opacity: 1;" vector-effect="non-scaling-stroke"  transform=" translate(-0.000005, 0)" d="M 11.42467 -15.90909 L -11.424659999999998 15.90909" stroke-linecap="round" />
</g>
<g transform="matrix(1.27620846 0 0 1.2762084612 309.6627114743 145.6899455328)" id="RbZ01HY22CYlgaPtACpY0"  >
<path style="stroke: rgb(10,182,0); stroke-width: 5; stroke-dasharray: none; stroke-linecap: butt; stroke-dashoffset: 0; stroke-linejoin: miter; stroke-miterlimit: 4; fill: rgb(255,255,255); fill-opacity: 0; fill-rule: nonzero; opacity: 1;" vector-effect="non-scaling-stroke"  transform=" translate(0, 0)" d="M -12.33766 -27.27273 L 7.62987 17.409090000000003 L 12.33766 27.272730000000003" stroke-linecap="round" />
</g>
<g transform="matrix(1.27620846 0 0 1.2762084612 365.5606420206 139.3089032266)" id="CxfzrA6GEwl4aPaAZil1Z"  >
<path style="stroke: rgb(10,182,0); stroke-width: 5; stroke-dasharray: none; stroke-linecap: butt; stroke-dashoffset: 0; stroke-linejoin: miter; stroke-miterlimit: 4; fill: rgb(255,255,255); fill-opacity: 0; fill-rule: nonzero; opacity: 1;" vector-effect="non-scaling-stroke"  transform=" translate(0, 0)" d="M 19.48052 -22.34091 L -19.48052 22.34091" stroke-linecap="round" />
</g>
<g transform="matrix(1.27620846 0 0 1.2762084612 418.9061556469 100.1293034668)" id="5ng-83lBR0zHlYRETAudG"  >
<path style="stroke: rgb(10,182,0); stroke-width: 5; stroke-dasharray: none; stroke-linecap: butt; stroke-dashoffset: 0; stroke-linejoin: miter; stroke-miterlimit: 4; fill: rgb(255,255,255); fill-opacity: 0; fill-rule: nonzero; opacity: 1;" vector-effect="non-scaling-stroke"  transform=" translate(0.000005, 0)" d="M 16.29545 -2.75974 L -16.295460000000002 2.75974" stroke-linecap="round" />
</g>
<g transform="matrix(1.27620846 0 0 1.2762084612 444.8131873841 140.9679742262)" id="sGvKix-iPkTykAo8MpOhI"  >
<path style="stroke: rgb(10,182,0); stroke-width: 5; stroke-dasharray: none; stroke-linecap: butt; stroke-dashoffset: 0; stroke-linejoin: miter; stroke-miterlimit: 4; fill: rgb(255,255,255); fill-opacity: 0; fill-rule: nonzero; opacity: 1;" vector-effect="non-scaling-stroke"  transform=" translate(0, 0.000005)" d="M 20.32305 -3.60938 L -20.32305 3.60937" stroke-linecap="round" />
</g>
<g transform="matrix(1.27620846 0 0 1.2762084612 273.9288745954 82.5176267019)" id="oj5Z8LWq5vNlT2Mp_2WwW"  >
<path style="stroke: rgb(10,182,0); stroke-width: 5; stroke-dasharray: none; stroke-linecap: butt; stroke-dashoffset: 0; stroke-linejoin: miter; stroke-miterlimit: 4; fill: rgb(255,255,255); fill-opacity: 0; fill-rule: nonzero; opacity: 1;" vector-effect="non-scaling-stroke"  transform=" translate(0, 0.000005)" d="M 2.30713 27.6601 L -49.31625 -27.660110000000003 L 13.166700000000006 20.71651 L 2.3071200000000065 -4.80744 L 22.76167000000001 -20.84193 L 49.31625000000001 -25.586660000000002" stroke-linecap="round" />
</g>
<g transform="matrix(1.27620846 0 0 1.2762084612 303.7921525585 55.8448698622)" id="u-h3ZLWcIFQBwIWl-QjGZ"  >
<path style="stroke: rgb(10,182,0); stroke-width: 5; stroke-dasharray: none; stroke-linecap: butt; stroke-dashoffset: 0; stroke-linejoin: miter; stroke-miterlimit: 4; fill: rgb(255,255,255); fill-opacity: 0; fill-rule: nonzero; opacity: 1;" vector-effect="non-scaling-stroke"  transform=" translate(0, 0)" d="M 0 0" stroke-linecap="round" />
</g>
<g transform="matrix(1.27620846 0 0 1.2762084612 305.7064652484 82.7728683941)" id="Ax0-NeGkubpGQDCP9uzsl"  >
<path style="stroke: rgb(10,182,0); stroke-width: 5; stroke-dasharray: none; stroke-linecap: butt; stroke-dashoffset: 0; stroke-linejoin: miter; stroke-miterlimit: 4; fill: rgb(255,255,255); fill-opacity: 0; fill-rule: nonzero; opacity: 1;" vector-effect="non-scaling-stroke"  transform=" translate(-0.000005, 0)" d="M 8.94652 -13.43629 L -0.97898 -20.52922 L -8.94651 20.52922" stroke-linecap="round" />
</g>
<g transform="matrix(1.27620846 0 0 1.2762084612 303.1540483285 40.4027474813)" id="MwIuOeSnwdb7iyMyS-l6U"  >
<path style="stroke: rgb(10,182,0); stroke-width: 5; stroke-dasharray: none; stroke-linecap: butt; stroke-dashoffset: 0; stroke-linejoin: miter; stroke-miterlimit: 4; fill: rgb(255,255,255); fill-opacity: 0; fill-rule: nonzero; opacity: 1;" vector-effect="non-scaling-stroke"  transform=" translate(-0.000005, 0.00001)" d="M -26.92745 -8.67931 L -16.89011 29.307699999999997 L -5.47128 1.3856199999999959 L 9.21758 -29.307720000000003 L 26.927459999999996 4.305669999999999" stroke-linecap="round" />
</g>
<g transform="matrix(1.27620846 0 0 1.2762084612 316.1713746201 30.7035631759)" id="xbCUXi2EVPHukzDOgWiuc"  >
<path style="stroke: rgb(10,182,0); stroke-width: 5; stroke-dasharray: none; stroke-linecap: butt; stroke-dashoffset: 0; stroke-linejoin: miter; stroke-miterlimit: 4; fill: rgb(255,255,255); fill-opacity: 0; fill-rule: nonzero; opacity: 1;" vector-effect="non-scaling-stroke"  transform=" translate(0, 0)" d="M -0.97994 -19.21825 L 0.97994 19.21825" stroke-linecap="round" />
</g>
<g transform="matrix(1.27620846 0 0 1.2762084612 359.6900831048 58.0144242462)" id="kbu2RcPr72x5SbJH1ENVu"  >
<path style="stroke: rgb(10,182,0); stroke-width: 5; stroke-dasharray: none; stroke-linecap: butt; stroke-dashoffset: 0; stroke-linejoin: miter; stroke-miterlimit: 4; fill: rgb(255,255,255); fill-opacity: 0; fill-rule: nonzero; opacity: 1;" vector-effect="non-scaling-stroke"  transform=" translate(0, 0)" d="M -12.42467 28.77121 L 4.5805099999999985 -28.77121 L 5.899659999999999 -21.39062 L 12.424669999999999 -28.771209999999996" stroke-linecap="round" />
</g>
<g transform="matrix(1.27620846 0 0 1.2762084612 327.2743882218 287.9871889599)" id="7xX0MaWdhQWi5guE0YrPy"  >
<path style="stroke: rgb(10,182,0); stroke-width: 5; stroke-dasharray: none; stroke-linecap: butt; stroke-dashoffset: 0; stroke-linejoin: miter; stroke-miterlimit: 4; fill: rgb(255,255,255); fill-opacity: 0; fill-rule: nonzero; opacity: 1;" vector-effect="non-scaling-stroke"  transform=" translate(0, 0.000005)" d="M -37.85065 -5.00263 L -37.85065 5.6456599999999995 L -2.1363600000000034 -2.21924 L 31.32564 10.84046 L 37.85065 -10.84047" stroke-linecap="round" />
</g>
<g transform="matrix(1.27620846 0 0 1.2762084612 322.6800377659 295.8996814195)" id="xQtZVOHxMxqisJSvs__Fc"  >
<path style="stroke: rgb(10,182,0); stroke-width: 5; stroke-dasharray: none; stroke-linecap: butt; stroke-dashoffset: 0; stroke-linejoin: miter; stroke-miterlimit: 4; fill: rgb(255,255,255); fill-opacity: 0; fill-rule: nonzero; opacity: 1;" vector-effect="non-scaling-stroke"  transform=" translate(-0.000005, -0.000005)" d="M -6.11258 4.48166 L -0.11258000000000035 -6.131 L 6.11259 6.13101" stroke-linecap="round" />
</g>
</svg>