<?xml version="1.0" standalone="no"?>
<!DOCTYPE svg PUBLIC "-//W3C//DTD SVG 20010904//EN"
 "http://www.w3.org/TR/2001/REC-SVG-20010904/DTD/svg10.dtd">
<svg version="1.0" xmlns="http://www.w3.org/2000/svg"
 width="720.000000pt" height="720.000000pt" viewBox="0 0 720.000000 720.000000"
 preserveAspectRatio="xMidYMid meet">

<g transform="translate(0.000000,720.000000) scale(0.100000,-0.100000)"
fill="#000000" stroke="none">
<path d="M0 3600 l0 -3600 3600 0 3600 0 0 3600 0 3600 -3600 0 -3600 0 0
-3600z m4017 3075 c58 -19 111 -39 117 -44 6 -5 31 -14 56 -21 25 -6 68 -26
95 -44 28 -18 68 -44 91 -58 43 -27 445 -424 504 -498 19 -24 46 -60 60 -81
14 -20 37 -52 52 -71 26 -32 75 -139 103 -223 7 -22 22 -60 34 -85 11 -25 21
-57 21 -72 0 -14 10 -70 22 -125 27 -122 35 -272 44 -775 6 -351 4 -402 -10
-444 -9 -26 -16 -58 -16 -71 0 -14 -9 -45 -19 -71 -11 -26 -22 -64 -26 -84 -3
-20 -20 -58 -38 -85 -35 -52 -58 -103 -77 -172 -9 -33 -34 -68 -103 -144 -149
-161 -380 -389 -434 -428 -107 -78 -134 -85 -415 -99 -139 -7 -195 -13 -218
-25 -18 -9 -71 -55 -120 -103 l-88 -87 -6 -599 c-7 -676 -3 -644 -88 -722 -63
-58 -121 -78 -208 -72 -54 4 -81 12 -118 34 -51 32 -106 105 -122 162 -5 22
-7 135 -4 277 2 132 6 420 8 640 4 520 -4 495 246 744 169 168 279 246 360
256 25 3 68 10 95 16 28 5 122 12 209 14 87 3 165 9 174 14 18 10 191 188 285
294 38 44 62 81 72 114 8 26 26 64 41 83 31 41 39 62 66 155 18 60 21 102 22
295 1 124 -2 275 -6 335 -5 61 -11 169 -13 241 -2 72 -9 144 -15 159 -6 16
-15 62 -20 103 -14 108 -73 242 -146 335 -51 65 -262 279 -368 376 -81 72
-118 93 -239 132 -76 25 -103 29 -205 29 -64 0 -146 -5 -182 -11 -36 -5 -103
-14 -150 -18 -79 -9 -114 -19 -290 -90 -25 -10 -57 -21 -72 -25 -37 -9 -360
-334 -386 -390 -63 -131 -81 -236 -82 -484 0 -134 2 -141 68 -242 60 -91 141
-179 201 -218 153 -99 155 -100 351 -162 79 -24 234 -19 302 10 108 47 145 77
180 148 26 52 33 79 32 122 -1 93 -70 199 -141 216 -44 11 -187 -4 -241 -25
-135 -53 -276 -6 -344 115 -58 103 -44 225 34 311 48 51 82 71 153 89 28 7 70
20 95 29 35 13 86 17 235 18 186 2 191 1 245 -24 30 -15 72 -32 92 -38 21 -7
59 -31 85 -54 26 -24 65 -55 86 -71 21 -15 50 -46 64 -69 15 -23 44 -68 65
-101 21 -32 38 -63 38 -70 0 -6 12 -36 26 -66 44 -91 66 -310 40 -386 -9 -26
-16 -59 -16 -74 0 -14 -11 -48 -24 -76 -13 -27 -29 -66 -36 -87 -7 -21 -24
-53 -40 -70 -15 -18 -38 -50 -52 -72 -26 -41 -63 -76 -153 -144 -57 -43 -250
-141 -277 -141 -9 0 -40 -9 -68 -20 -44 -18 -74 -20 -240 -20 -160 0 -199 3
-247 19 -32 11 -98 31 -148 46 -95 28 -232 90 -300 135 -191 127 -221 151
-287 226 -94 106 -243 325 -255 373 -3 14 -17 49 -32 76 -24 47 -26 60 -27
205 -2 85 2 229 7 320 10 162 28 252 76 375 8 22 25 68 37 101 13 34 40 83 62
109 133 160 479 500 544 535 13 7 45 19 70 26 48 13 164 56 350 129 19 8 58
14 85 15 28 0 82 5 120 11 142 21 234 26 407 23 171 -4 182 -6 285 -39z m-571
-5660 c110 -32 184 -136 184 -257 0 -82 -18 -129 -68 -182 -97 -101 -256 -116
-363 -33 -125 96 -141 280 -37 394 80 86 172 112 284 78z"/>
</g>
</svg>
