<?xml version="1.0" encoding="UTF-8" standalone="no" ?>
<!DOCTYPE svg PUBLIC "-//W3C//DTD SVG 1.1//EN" "http://www.w3.org/Graphics/SVG/1.1/DTD/svg11.dtd">
<svg xmlns="http://www.w3.org/2000/svg" xmlns:xlink="http://www.w3.org/1999/xlink" version="1.1" width="400" height="400" viewBox="0 0 400 400" xml:space="preserve">
<desc>Created with Fabric.js 4.6.0</desc>
<defs>
</defs>
<g transform="matrix(1 0 0 1 665.68 441.48)" id="QLVECiXZU8nPas3nQJrXO"  >
<path style="stroke: rgb(0,0,0); stroke-width: 1; stroke-dasharray: none; stroke-linecap: butt; stroke-dashoffset: 0; stroke-linejoin: miter; stroke-miterlimit: 4; fill: rgb(255,255,255); fill-opacity: 0; fill-rule: nonzero; opacity: 1;" vector-effect="non-scaling-stroke"  transform=" translate(0, 0)" d="M 0 0" stroke-linecap="round" />
</g>
<g transform="matrix(1 0 0 1 200 200)" id="2nMJMS6FqcrRIZjMJhX4a"  >
<g style="" vector-effect="non-scaling-stroke"   >
		<g transform="matrix(0.64 0 0 0.64 0 123.3)" id="LZs3m4UhqmvDeRSpI7kzQ"  >
<path style="stroke: rgb(0,0,0); stroke-width: 20; stroke-dasharray: none; stroke-linecap: round; stroke-dashoffset: 0; stroke-linejoin: miter; stroke-miterlimit: 4; fill: rgb(255,255,255); fill-opacity: 0; fill-rule: nonzero; opacity: 1;" vector-effect="non-scaling-stroke"  transform=" translate(0, 0)" d="M -294.64435 -38.59758 L -217.44919999999996 38.59757 L 216.96138000000002 38.59757 L 294.64436 -38.59758" stroke-linecap="round" />
</g>
		<g transform="matrix(0.19 0 0 0.19 190.37 98.33)" id="O29lUkbbVKIRhxoQGnO2y"  >
<!-- <path style="stroke: rgb(59,201,66); stroke-width: 0; stroke-dasharray: none; stroke-linecap: butt; stroke-dashoffset: 0; stroke-linejoin: miter; stroke-miterlimit: 4; fill: rgb(0,0,0); fill-rule: nonzero; opacity: 1;" vector-effect="non-scaling-stroke"  transform=" translate(0, 0)" d="M 0 -49.38272 C 27.25926 -49.38272 49.38272 -27.259259999999998 49.38272 0 C 49.38272 27.25926 27.259259999999998 49.38272 0 49.38272 C -27.25926 49.38272 -49.38272 27.259259999999998 -49.38272 0 C -49.38272 -27.25926 -27.259259999999998 -49.38272 0 -49.38272 z" stroke-linecap="round" /> -->
</g>
		<g transform="matrix(0.19 0 0 0.19 -189.76 98.33)" id="hZNkCv0z705AzUsIhil7-"  >
<!-- <path style="stroke: rgb(59,201,66); stroke-width: 0; stroke-dasharray: none; stroke-linecap: butt; stroke-dashoffset: 0; stroke-linejoin: miter; stroke-miterlimit: 4; fill: rgb(0,0,0); fill-rule: nonzero; opacity: 1;" vector-effect="non-scaling-stroke"  transform=" translate(0, 0)" d="M 0 -49.38272 C 27.25926 -49.38272 49.38272 -27.259259999999998 49.38272 0 C 49.38272 27.25926 27.259259999999998 49.38272 0 49.38272 C -27.25926 49.38272 -49.38272 27.259259999999998 -49.38272 0 C -49.38272 -27.25926 -27.259259999999998 -49.38272 0 -49.38272 z" stroke-linecap="round" /> -->
</g>
		<g transform="matrix(0 -3.35 3.35 0 0 -23.8)" id="vF0of0ufGFRryvNcpI022"  >
<path style="stroke: none; stroke-width: 1; stroke-dasharray: none; stroke-linecap: butt; stroke-dashoffset: 0; stroke-linejoin: miter; stroke-miterlimit: 4; fill: rgb(84,196,255); fill-rule: nonzero; opacity: 1;" vector-effect="non-scaling-stroke"  transform=" translate(0, 0)" d="M 1.17 32.5 L 40 0 L 1.1700000000000017 -32.5 L 1.1700000000000017 -11.895 L -40 -11.895 L -40 11.952000000000002 L 1.1700000000000017 11.952000000000002 z" stroke-linecap="round" />
</g>
</g>
</g>
</svg>