<?xml version="1.0" encoding="UTF-8" standalone="no" ?>
<!DOCTYPE svg PUBLIC "-//W3C//DTD SVG 1.1//EN" "http://www.w3.org/Graphics/SVG/1.1/DTD/svg11.dtd">
<svg xmlns="http://www.w3.org/2000/svg" xmlns:xlink="http://www.w3.org/1999/xlink" version="1.1" width="170" height="170" viewBox="0 0 170 170" xml:space="preserve">
<desc>Created with Fabric.js 4.6.0</desc>
<defs>
</defs>
<g transform="matrix(1 0 0 1 85.09 83.24)" id="psLYeRQ8PD9hNG7IcXw-r"  >
<g style="" vector-effect="non-scaling-stroke"   >
		<g transform="matrix(1 0 0 1 0 0)" id="s5Ze6nnD8kE_-i0UQT-eA"  >
<g style="" vector-effect="non-scaling-stroke"   >
		<g transform="matrix(1.7 0 0 1 0 10.67)" id="x-36qni153o2dJU5AY5OK"  >
<path style="stroke: rgb(174,39,224); stroke-width: 0; stroke-dasharray: none; stroke-linecap: butt; stroke-dashoffset: 0; stroke-linejoin: miter; stroke-miterlimit: 4; fill: rgb(0,0,0); fill-rule: nonzero; opacity: 1;" vector-effect="non-scaling-stroke"  transform=" translate(0, 0)" d="M -50 -50 L 50 -50 L 50 50 L -50 50 z" stroke-linecap="round" />
</g>
		<g transform="matrix(1 0 0 1 0 -50)" id="rqap1L4nV1lgmmqnr6xJ-"  >
<path style="stroke: rgb(0,0,0); stroke-width: 1; stroke-dasharray: none; stroke-linecap: butt; stroke-dashoffset: 0; stroke-linejoin: miter; stroke-miterlimit: 4; fill: rgb(0,0,0); fill-rule: nonzero; opacity: 1;" vector-effect="non-scaling-stroke"  transform=" translate(0, 0)" d="M -46.72366 10.17234 C -46.72366 10.17234 -57.08664 2.36165 -36.30941 -0.24190999999999896 C -15.53218 -2.845469999999999 15.66187 -2.845469999999999 36.385270000000006 -0.24190999999999896 C 57.108670000000004 2.361650000000001 46.58417000000001 10.17234 46.58417000000001 10.17234 L 53.515550000000005 10.17234 C 53.515550000000005 10.17234 58.84151000000001 -2.6769300000000005 36.385270000000006 -6.960019999999998 C 13.929030000000004 -11.243109999999998 -13.829759999999993 -11.243109999999998 -36.30941 -6.960019999999998 C -58.78905 -2.6769299999999987 -53.5333 10.17234 -53.5333 10.17234 z" stroke-linecap="round" />
</g>
</g>
</g>
		<g transform="matrix(1 0 0 1 -0.09 3.83)" id="XUEl1FwuaB7A5YhRNCHB8"  >
<path style="stroke: rgb(255,255,255); stroke-width: 1; stroke-dasharray: none; stroke-linecap: butt; stroke-dashoffset: 0; stroke-linejoin: miter; stroke-miterlimit: 4; fill: rgb(255,255,255); fill-opacity: 0; fill-rule: nonzero; opacity: 1;" vector-effect="non-scaling-stroke"  transform=" translate(-9.5, -31.92)" d="M 19 0 C 19 0 0 11.97 0 22.04 C 0 32.11 19 29.83 19 40.28 C 19 50.730000000000004 0 63.84 0 63.84" stroke-linecap="round" />
</g>
		<g transform="matrix(3.05 0 0 3.05 -0.05 3.83)" id="wmidHb64pvHwkwyrH3hV-"  >
<path style="stroke: rgb(255,255,255); stroke-width: 1; stroke-dasharray: none; stroke-linecap: butt; stroke-dashoffset: 0; stroke-linejoin: miter; stroke-miterlimit: 4; fill: rgb(255,255,255); fill-opacity: 0; fill-rule: nonzero; opacity: 1;" vector-effect="non-scaling-stroke"  transform=" translate(0, 0)" d="M -0.01475 -10.62951 L 0.014760000000000002 10.62951" stroke-linecap="round" />
</g>
</g>
</g>
</svg>